<?xml version="1.0" encoding="utf-8"?>
<!-- Generator: Adobe Illustrator 24.3.0, SVG Export Plug-In . SVG Version: 6.00 Build 0)  -->
<svg version="1.1" id="Layer_1" xmlns="http://www.w3.org/2000/svg" xmlns:xlink="http://www.w3.org/1999/xlink" x="0px" y="0px"
	 viewBox="0 0 841.89 595.28" style="enable-background:new 0 0 841.89 595.28;" xml:space="preserve">
<style type="text/css">
	.st0{fill:none;}
</style>
<g>
	
		<ellipse transform="matrix(0.7071 -0.7071 0.7071 0.7071 32.4283 160.5436)" class="st0" cx="210.01" cy="41.13" rx="15.59" ry="15.59"/>
	<path class="st0" d="M12.06,25.54v31.18h170.95c5.39,9.32,15.46,15.59,27,15.59c11.54,0,21.61-6.27,27-15.59H597.5v125.67
		c0,8.61,6.98,15.59,15.59,15.59s15.59-6.98,15.59-15.59V25.54h-0.18h-31H237.01c-5.39-9.32-15.46-15.59-27-15.59
		c-11.54,0-21.61,6.27-27,15.59H12.06z"/>
	<path class="st0" d="M51.13,41.13c0-3.91-3.17-7.09-7.09-7.09H29.87c-3.91,0-7.09,3.17-7.09,7.09c0,3.91,3.17,7.09,7.09,7.09h14.17
		C47.96,48.21,51.13,45.04,51.13,41.13z"/>
</g>
</svg>
